<svg width="23" height="23" viewBox="0 0 23 23" fill="none" xmlns="http://www.w3.org/2000/svg">
<path d="M20.6226 8.41964C20.565 8.24983 20.4589 8.10061 20.3174 7.99043C20.1759 7.88024 20.0052 7.81389 19.8265 7.79959L14.5973 7.38408L12.3345 2.37506C12.2624 2.21373 12.1452 2.07671 11.997 1.98052C11.8488 1.88434 11.6759 1.8331 11.4992 1.83301C11.3225 1.83291 11.1496 1.88395 11.0012 1.97998C10.8529 2.076 10.7355 2.2129 10.6633 2.37415L8.40049 7.38408L3.17133 7.79959C2.99564 7.8135 2.82768 7.87774 2.68754 7.98462C2.54741 8.0915 2.44103 8.23648 2.38113 8.40224C2.32124 8.56799 2.31036 8.74749 2.34981 8.91926C2.38926 9.09103 2.47736 9.2478 2.60357 9.37081L6.46787 13.1379L5.1012 19.0559C5.0597 19.235 5.073 19.4225 5.13937 19.594C5.20574 19.7655 5.32212 19.913 5.47341 20.0175C5.6247 20.1221 5.80391 20.1787 5.98778 20.1801C6.17165 20.1815 6.3517 20.1276 6.50456 20.0254L11.4989 16.6958L16.4932 20.0254C16.6495 20.1291 16.8337 20.1825 17.0212 20.1784C17.2087 20.1743 17.3905 20.1129 17.542 20.0024C17.6935 19.8919 17.8076 19.7377 17.8689 19.5604C17.9301 19.3832 17.9357 19.1914 17.8847 19.0109L16.2071 13.1406L20.3676 9.39649C20.6401 9.15067 20.74 8.76727 20.6226 8.41964Z" fill="#F3CD03"/>
</svg>
