<svg width="33" height="32" viewBox="0 0 33 32" fill="none" xmlns="http://www.w3.org/2000/svg">
<g clip-path="url(#clip0_2_163)">
<g clip-path="url(#clip1_2_163)">
<path d="M6.84842 31.9998H26.1517C27.3003 31.9998 28.2566 31.1212 28.2566 30.0416V6.62831C28.2566 5.54842 27.3003 4.66064 26.1517 4.66064H22.9696V6.44842C22.9742 6.75874 22.7294 7.01554 22.4193 7.02586H10.543C10.2267 7.01825 9.97125 6.76472 9.96092 6.44842V4.66064H6.84842C5.69978 4.66064 4.74353 5.54842 4.74353 6.62831V30.0416C4.74353 31.1212 5.69978 31.9998 6.84842 31.9998ZM11.1435 14.0519C11.1435 13.7446 11.3927 13.4954 11.7001 13.4954H14.5522V10.6433C14.5522 10.3359 14.8014 10.0867 15.1087 10.0867H17.8914C18.1987 10.0867 18.4479 10.3359 18.4479 10.6433V13.4954H21.3001C21.6074 13.4954 21.8566 13.7446 21.8566 14.0519V16.8346C21.8566 17.1419 21.6074 17.3911 21.3001 17.3911H18.4479V20.2433C18.4479 20.5506 18.1987 20.7998 17.8914 20.7998H15.1087C14.8014 20.7998 14.5522 20.5506 14.5522 20.2433V17.3911H11.7001C11.3927 17.3911 11.1435 17.1419 11.1435 16.8346V14.0519ZM11.3702 23.6519H21.6299C21.9375 23.6519 22.1865 23.9011 22.1865 24.2085C22.1865 24.5158 21.9375 24.765 21.6299 24.765H11.3702C11.0626 24.765 10.8136 24.5158 10.8136 24.2085C10.8136 23.9011 11.0626 23.6519 11.3702 23.6519ZM9.2832 26.4346H23.7169C24.0245 26.4346 24.2734 26.6837 24.2734 26.9911C24.2734 27.2984 24.0245 27.5476 23.7169 27.5476H9.2832C8.9756 27.5476 8.72668 27.2984 8.72668 26.9911C8.72668 26.6837 8.9756 26.4346 9.2832 26.4346Z" fill="#E74040"/>
<path d="M21.8565 2.15652H19.2521C18.9902 2.15625 18.7635 1.97337 18.7084 1.71712C18.4931 0.722556 17.5486 1.23676e-06 16.4622 1.23676e-06H16.4554C15.398 -0.00108572 14.4744 0.714403 14.2114 1.73832C14.148 1.98424 13.9263 2.15625 13.6722 2.15652H11.0739V5.91304H21.8565V2.15652Z" fill="#E74040"/>
<path d="M15.6652 16.835V19.6872H17.3347V16.835C17.3347 16.5276 17.5839 16.2785 17.8913 16.2785H20.7434V14.6089H17.8913C17.5839 14.6089 17.3347 14.3597 17.3347 14.0524V11.2002H15.6652V14.0524C15.6652 14.3597 15.416 14.6089 15.1086 14.6089H12.2565V16.2785H15.1086C15.416 16.2785 15.6652 16.5276 15.6652 16.835Z" fill="#E74040"/>
</g>
</g>
<defs>
<clipPath id="clip0_2_163">
<rect width="32" height="32" fill="white" transform="translate(0.5)"/>
</clipPath>
<clipPath id="clip1_2_163">
<rect width="32" height="32" fill="white" transform="translate(0.5)"/>
</clipPath>
</defs>
</svg>
