<svg width="33" height="32" viewBox="0 0 33 32" fill="none" xmlns="http://www.w3.org/2000/svg">
<g clip-path="url(#clip0_2_143)">
<path d="M16.491 4.218C9.51593 -1.88266 0.647291 3.47755 0.501864 10.7442C0.464805 12.5961 0.999389 14.4 2.0635 16.0631H8.96072L10.1875 14.0184C10.5437 13.4247 11.4058 13.4056 11.7822 13.9974L14.3706 18.0648L18.1436 10.0997C18.4726 9.40473 19.4532 9.38267 19.8161 10.0566L23.0504 16.0631H30.9184C36.7468 6.95379 25.2279 -3.42361 16.491 4.218Z" fill="#E74040"/>
<path d="M21.6651 17.4448L19.0443 12.5776L15.3383 20.4014C15.023 21.0671 14.0956 21.1249 13.7002 20.5034L11.0148 16.2835L10.2953 17.4827C10.1259 17.7651 9.82078 17.9378 9.49149 17.9378H3.54645C3.73281 18.1328 2.73957 17.1416 15.8298 30.164C16.1954 30.5278 16.7864 30.5278 17.152 30.164C30.0408 17.342 29.2494 18.1325 29.4354 17.9378H22.4905C22.1456 17.9379 21.8286 17.7485 21.6651 17.4448Z" fill="#E74040"/>
</g>
<defs>
<clipPath id="clip0_2_143">
<rect width="32" height="32" fill="white" transform="translate(0.5)"/>
</clipPath>
</defs>
</svg>
